P2
100 100
255
248 248 248 248 248 248 248 248 248 248 248 248 248 248 248 248 248 
248 248 248 248 248 248 248 248 248 248 248 248 248 248 248 248 248 
248 248 248 248 248 248 248 248 248 248 248 248 248 248 248 248 248 
248 248 248 248 248 248 248 248 248 248 248 248 248 248 248 248 248 
248 248 248 248 248 248 248 248 248 248 248 248 248 248 248 248 248 
248 248 248 248 248 248 248 248 248 248 248 248 248 248 248 248 248 
248 248 248 248 248 248 248 248 248 248 248 248 248 248 248 248 248 
248 248 248 248 248 248 248 248 248 248 248 248 248 248 248 248 248 
248 248 248 248 248 248 248 248 248 248 248 248 248 248 248 248 248 
248 248 248 248 248 248 248 248 248 248 248 248 248 248 248 248 248 
248 248 248 248 248 248 248 248 248 248 248 248 248 248 248 248 248 
248 248 248 248 248 248 248 248 248 248 248 248 248 248 248 248 248 
248 248 248 248 248 248 248 248 248 248 248 248 248 248 248 248 248 
248 248 248 248 248 248 248 248 248 248 248 248 248 248 248 248 248 
248 248 248 248 248 248 248 248 248 248 248 248 248 248 248 248 248 
248 248 248 248 248 248 248 248 248 248 248 248 248 248 248 248 248 
248 248 248 248 248 248 248 248 248 248 248 248 248 248 248 248 248 
248 248 248 248 248 248 248 248 248 248 248 248 248 248 248 248 248 
248 248 248 248 248 248 248 248 248 248 248 248 248 248 248 248 248 
248 248 248 248 248 248 248 248 248 248 248 248 248 248 248 248 248 
248 248 248 248 248 248 248 248 248 248 248 248 248 248 248 248 248 
248 248 248 248 248 248 248 248 248 248 248 248 248 248 248 248 248 
248 248 248 248 248 248 248 248 248 248 248 248 248 248 248 248 248 
248 248 248 248 248 248 248 248 248 248 248 248 248 248 248 248 248 
248 248 248 248 248 248 248 248 248 248 248 248 248 248 248 248 248 
248 248 248 248 248 248 248 248 248 248 248 248 248 248 248 248 248 
248 248 248 248 248 248 248 248 248 248 248 248 248 248 248 248 248 
248 248 248 248 248 248 248 248 248 248 248 248 248 248 248 248 248 
248 248 248 248 248 248 248 248 248 248 248 248 248 248 248 248 248 
248 248 248 248 248 248 248 248 248 248 248 248 248 248 248 248 248 
248 248 248 248 248 248 248 248 248 248 248 248 248 248 248 248 248 
248 248 248 248 248 248 248 248 248 248 248 248 248 248 248 248 248 
248 248 248 248 248 248 248 248 248 248 248 248 248 248 248 248 248 
248 248 248 248 248 248 248 248 248 248 248 248 248 248 248 248 248 
248 248 248 248 248 248 248 248 248 248 248 248 248 248 248 248 248 
248 248 248 248 248 248 248 248 248 248 248 248 248 248 248 248 248 
248 248 248 248 248 248 248 248 248 248 248 248 248 248 248 248 248 
248 248 248 248 248 248 248 248 248 248 248 248 248 248 248 248 248 
248 248 248 248 248 248 248 248 248 248 248 248 248 248 248 248 248 
248 248 248 248 248 248 248 248 248 248 248 248 248 248 248 248 248 
248 248 248 248 248 248 248 248 248 248 248 248 248 248 248 248 248 
248 248 248 248 248 248 248 248 248 248 248 248 248 248 248 248 248 
248 248 248 248 248 248 248 248 248 248 248 248 248 248 248 248 248 
248 248 248 248 248 248 248 248 248 248 248 248 248 248 248 248 248 
248 248 248 248 248 248 248 248 248 248 248 248 248 248 248 248 248 
248 248 248 248 248 248 248 248 248 248 248 248 248 248 248 248 248 
248 248 248 248 248 248 248 248 248 248 248 248 248 248 248 248 248 
248 248 248 248 248 248 248 248 248 248 248 248 248 248 248 248 248 
248 248 248 248 248 248 248 248 248 248 248 248 248 248 248 248 248 
248 248 248 248 248 248 248 248 248 248 248 248 248 248 248 248 248 
248 248 248 248 248 248 248 248 248 248 248 248 248 248 248 248 248 
248 248 248 248 248 248 248 248 248 248 248 248 248 248 248 248 248 
248 248 248 248 248 248 248 248 248 248 248 248 248 248 248 248 248 
248 248 248 248 248 248 248 248 248 248 248 248 248 248 248 248 248 
248 248 248 248 248 248 248 248 248 248 248 248 248 248 248 248 248 
248 248 248 248 248 248 248 248 248 248 248 248 248 248 248 248 248 
248 248 248 248 248 248 248 248 248 248 248 248 248 248 248 248 248 
248 248 248 248 248 248 248 248 248 248 248 248 248 248 248 248 248 
248 248 248 248 248 248 248 248 248 248 248 248 248 248 248 248 248 
248 248 248 248 248 248 248 248 248 248 248 248 248 248 248 248 248 
248 248 248 248 248 248 248 248 248 248 248 248 248 248 248 248 248 
248 248 248 248 248 248 248 248 248 248 248 248 248 248 248 248 248 
248 248 248 248 248 248 248 248 248 248 248 248 248 248 248 248 248 
248 248 248 248 248 248 248 248 248 248 248 248 248 248 248 248 248 
248 248 248 248 248 248 248 248 248 248 248 248 248 248 248 248 248 
248 248 248 248 248 248 248 248 248 248 248 248 248 248 248 248 248 
248 248 248 248 248 248 248 248 248 248 248 248 248 248 248 248 248 
248 248 248 248 248 248 248 248 248 248 248 248 248 248 248 248 248 
248 248 248 248 248 248 248 248 248 248 248 248 248 248 248 248 248 
248 248 248 248 248 248 248 248 248 248 248 248 248 248 248 248 248 
248 248 248 248 248 248 248 248 248 248 248 248 248 248 248 248 248 
248 248 248 248 248 248 248 248 248 248 248 248 248 248 248 248 248 
248 248 248 248 248 248 248 248 248 248 248 248 248 248 248 248 248 
248 248 248 248 248 248 248 248 248 248 248 248 248 248 248 248 248 
248 248 248 248 248 248 248 248 248 248 248 248 248 248 248 248 248 
248 248 248 248 248 248 248 248 248 248 248 248 248 248 248 248 248 
248 248 248 248 248 248 248 248 248 248 248 248 248 248 248 248 248 
248 248 248 248 248 248 248 248 248 248 248 248 248 248 248 248 248 
248 248 248 248 248 248 248 248 248 248 248 248 248 248 248 248 248 
248 248 248 248 248 248 248 248 248 248 248 248 248 248 248 248 248 
248 248 248 248 248 248 248 248 248 248 248 248 248 248 248 248 248 
248 248 248 248 248 248 248 248 248 248 248 248 248 248 248 248 248 
248 248 248 248 248 248 248 248 248 248 248 248 248 248 248 248 248 
248 248 248 248 248 248 248 248 248 248 248 248 248 248 248 248 248 
248 248 248 248 248 248 248 248 248 248 248 248 248 248 248 248 248 
248 248 248 248 248 248 248 248 248 248 248 248 248 248 248 248 248 
248 248 248 248 248 248 248 248 248 248 248 248 248 248 248 248 248 
248 248 248 248 248 248 248 248 248 248 248 248 248 248 248 248 248 
248 248 248 248 248 248 248 248 248 248 248 248 248 248 248 248 248 
248 248 248 248 248 248 248 248 248 248 248 248 248 248 248 248 248 
248 248 248 248 248 248 248 248 248 248 248 248 248 248 248 248 248 
248 248 248 248 248 248 248 248 248 248 248 248 248 248 248 248 248 
248 248 248 248 248 248 248 248 248 248 248 248 248 248 248 248 248 
248 248 248 248 248 248 248 248 248 248 248 248 248 248 248 248 248 
248 248 248 248 248 248 248 248 248 248 248 248 248 248 248 248 248 
248 248 248 248 248 248 248 248 248 248 248 248 248 248 248 248 248 
248 248 248 248 248 248 248 248 248 248 248 248 248 248 248 248 248 
248 248 248 248 248 248 248 248 248 248 248 248 248 248 248 248 248 
248 248 248 248 248 248 248 248 248 248 248 248 248 248 248 248 248 
248 248 248 248 248 248 248 248 248 248 248 248 248 248 248 248 248 
248 248 248 248 248 248 248 248 248 248 248 248 248 248 248 248 248 
248 248 248 248 248 248 248 248 248 248 248 248 248 248 248 248 248 
248 248 248 248 248 248 248 248 248 248 248 248 248 248 248 248 248 
248 248 248 248 248 248 248 248 248 248 248 248 248 248 248 248 248 
248 248 248 248 248 248 248 248 248 248 248 248 248 248 248 248 248 
248 248 248 248 248 248 248 248 248 248 248 248 248 248 248 248 248 
248 248 248 248 248 248 248 248 248 248 248 248 248 248 248 248 248 
248 248 248 248 248 248 248 248 248 248 248 248 248 248 248 248 248 
248 248 248 248 248 248 248 248 248 248 248 248 248 248 248 248 248 
248 248 248 248 248 248 248 248 248 248 248 248 248 248 248 248 248 
248 248 248 248 248 248 248 248 248 248 248 248 248 248 248 248 248 
248 248 248 248 248 248 248 248 248 248 248 248 248 248 248 248 248 
248 248 248 248 248 248 248 248 248 248 248 248 248 248 248 248 248 
248 248 248 248 248 248 248 248 248 248 248 248 248 248 248 248 248 
248 248 248 248 248 248 248 248 248 248 248 248 248 248 248 248 248 
248 248 248 248 248 248 248 248 248 248 248 248 248 248 248 248 248 
248 248 248 248 248 248 248 248 248 248 248 248 248 248 248 248 248 
248 248 248 248 248 248 248 248 248 248 248 248 248 248 248 248 248 
248 248 248 248 248 248 248 248 248 248 248 248 248 248 248 248 248 
248 248 248 248 248 248 248 248 248 248 248 248 248 248 248 248 248 
248 248 248 248 248 248 248 248 248 248 248 248 248 248 248 248 248 
248 248 248 248 248 248 248 248 248 248 248 248 248 248 248 248 248 
248 248 248 248 248 248 248 248 248 248 248 248 248 248 248 248 248 
248 248 248 248 248 248 248 248 248 248 248 248 248 248 248 248 248 
248 248 248 248 248 248 248 248 248 248 248 248 248 248 248 248 248 
248 248 248 248 248 248 248 248 248 248 248 248 248 248 248 248 248 
248 248 248 248 248 248 248 248 248 248 248 248 248 248 248 248 248 
248 248 248 248 248 248 248 248 248 248 248 248 248 248 248 248 248 
248 248 248 248 248 248 248 248 248 248 248 248 248 248 248 248 248 
248 248 248 248 248 248 248 248 248 248 248 248 248 248 248 248 248 
248 248 248 248 248 248 248 248 248 248 248 248 248 248 248 248 248 
248 248 248 248 248 248 248 248 248 248 248 248 248 248 248 248 248 
248 248 248 248 248 248 248 248 248 248 248 248 248 248 248 248 248 
248 248 248 248 248 248 248 248 248 248 248 248 248 248 248 248 248 
248 248 248 248 248 248 248 248 248 248 248 248 248 248 248 248 248 
248 248 248 248 248 248 248 248 248 248 248 248 248 248 248 248 248 
248 248 248 248 248 248 248 248 248 248 248 248 248 248 248 248 248 
248 248 248 248 248 248 248 248 248 248 248 248 248 248 248 248 248 
248 248 248 248 248 248 248 248 248 248 248 248 248 248 248 248 248 
248 248 248 248 248 248 248 248 248 248 248 248 248 248 248 248 248 
248 248 248 248 248 248 248 248 248 248 248 248 248 248 248 248 248 
248 248 204 248 248 248 248 248 248 248 248 248 248 248 248 248 248 
248 248 248 248 248 248 248 248 248 248 248 248 248 248 248 248 248 
248 248 248 248 248 248 248 248 248 248 248 248 248 248 248 248 248 
248 248 248 248 248 248 248 248 248 248 248 248 248 248 248 248 248 
248 248 248 248 248 248 248 248 248 248 248 248 248 248 248 248 248 
248 248 248 248 248 248 248 248 248 248 248 248 248 248 248 246 204 
189 248 248 248 248 248 248 248 248 248 248 248 248 248 248 248 248 
248 248 248 248 248 248 248 248 248 248 248 248 248 248 248 248 248 
248 248 248 248 248 248 248 248 248 248 248 248 248 248 248 248 248 
248 248 248 248 248 248 248 248 248 248 248 248 248 248 248 248 248 
248 248 248 248 248 248 248 248 248 248 248 248 248 248 248 248 248 
248 248 248 248 248 248 248 248 248 248 248 248 238 189 171 176 248 
248 248 248 248 248 248 248 248 248 248 248 248 248 248 248 248 248 
248 248 248 248 248 248 248 248 248 248 248 248 248 248 248 248 248 
248 248 248 248 248 248 248 248 248 248 248 248 248 248 248 248 248 
248 248 248 248 248 248 248 248 248 248 248 248 248 248 248 248 248 
248 248 248 248 248 248 248 248 248 248 248 248 248 248 248 248 248 
248 248 248 248 248 248 248 248 248 233 189 168 182 182 248 248 248 
248 248 248 248 248 248 248 248 248 248 248 248 248 248 248 248 248 
248 248 248 248 248 248 248 248 248 248 248 248 248 248 248 248 248 
248 248 248 248 248 248 248 248 248 248 248 248 248 248 248 248 248 
248 248 248 248 248 248 248 248 248 248 248 248 248 248 248 248 248 
248 248 248 248 248 248 248 248 248 248 248 248 248 248 248 248 248 
248 248 248 248 248 248 238 168 189 177 206 177 248 248 248 248 248 
248 248 248 248 248 248 248 248 248 248 248 248 248 248 248 248 248 
248 248 248 248 248 248 248 248 248 248 248 248 248 248 248 248 248 
248 248 248 248 248 248 248 248 248 248 248 248 248 248 248 248 248 
248 248 248 248 248 248 248 248 248 248 248 248 248 248 248 248 248 
248 248 248 248 248 248 248 248 248 248 248 248 248 248 248 248 248 
248 248 248 233 189 171 189 169 182 182 248 248 248 248 248 248 248 
248 248 248 248 248 248 248 248 248 248 248 248 248 248 248 248 248 
248 248 248 248 248 248 248 248 248 248 248 248 248 248 248 248 248 
248 248 248 248 248 248 248 248 248 248 248 248 248 248 248 248 248 
248 248 248 248 248 248 248 248 248 248 248 248 248 248 248 248 248 
248 248 248 248 248 248 248 248 248 248 248 248 248 248 248 248 248 
238 168 189 177 169 188 182 185 248 248 248 248 248 248 248 248 248 
248 248 248 248 248 248 248 248 248 248 248 248 248 248 248 248 248 
248 248 248 248 248 248 248 248 248 248 248 248 248 248 248 248 248 
248 248 248 248 248 248 248 248 248 248 248 248 248 248 248 248 248 
248 248 248 248 248 248 248 248 248 248 248 248 248 248 248 248 248 
248 248 248 248 248 248 248 248 248 248 248 248 248 248 237 204 159 
177 177 182 182 182 185 248 248 248 248 248 248 248 248 248 248 248 
248 248 248 248 248 248 248 248 248 248 248 248 248 248 248 248 248 
248 248 248 248 248 248 248 248 248 248 248 248 248 248 248 248 248 
248 248 248 248 248 248 248 248 248 248 248 248 248 248 248 248 248 
248 248 248 248 248 248 248 248 248 248 248 248 248 248 248 248 248 
248 248 248 248 248 248 248 248 248 248 248 248 204 171 176 177 182 
182 182 182 185 248 248 248 248 248 248 248 248 248 248 248 248 248 
248 248 248 248 248 248 248 248 248 248 248 248 248 248 248 248 248 
248 248 248 248 248 248 248 248 248 248 248 248 248 248 248 248 248 
248 248 248 248 248 248 248 248 248 248 248 248 248 248 248 248 248 
248 248 248 248 248 248 248 248 248 248 248 248 248 248 248 248 248 
248 248 248 248 248 248 248 248 248 204 171 177 177 182 182 182 182 
185 172 248 248 248 248 248 248 248 248 248 248 248 248 248 248 248 
248 248 248 248 248 248 248 248 248 248 248 248 248 248 248 248 248 
248 248 248 248 248 248 248 248 248 248 248 248 248 248 248 248 248 
248 248 248 248 248 248 248 248 248 248 248 248 248 248 248 248 248 
248 248 248 248 248 248 248 248 248 248 248 248 248 248 248 248 248 
248 248 248 248 248 248 233 189 171 177 182 182 182 177 185 172 169 
248 248 248 248 248 248 248 248 248 248 248 248 248 248 248 248 248 
248 248 248 248 248 248 248 248 248 248 248 248 248 248 248 248 248 
248 248 248 248 248 248 248 248 248 248 248 248 248 248 248 248 248 
248 248 248 248 248 248 248 248 248 248 248 248 248 248 248 248 248 
248 248 248 248 248 248 248 248 248 248 248 248 248 248 248 248 248 
248 248 248 233 171 175 182 182 182 206 169 191 179 179 182 248 248 
248 248 248 248 248 248 248 248 248 248 248 248 248 248 248 248 248 
248 248 248 248 248 248 248 248 248 248 248 248 248 248 248 248 248 
248 248 248 248 248 248 248 248 248 248 248 248 248 248 248 248 248 
248 248 248 248 248 248 248 248 248 248 248 248 248 248 248 248 248 
248 248 248 248 248 248 248 248 248 248 248 248 248 248 248 248 248 
238 189 171 177 177 182 185 185 185 182 179 169 185 248 248 248 248 
248 248 248 248 248 248 248 248 248 248 248 248 248 248 248 248 248 
248 248 248 248 248 248 248 248 248 248 248 248 248 248 248 248 248 
248 248 248 248 248 248 248 248 248 248 248 248 248 248 248 248 248 
248 248 248 248 248 248 248 248 248 248 248 248 248 248 248 248 248 
248 248 248 248 248 248 248 248 248 248 248 248 248 248 237 189 189 
175 183 182 182 185 182 185 185 188 191 182 248 248 248 248 248 248 
248 248 248 248 248 248 248 248 248 248 248 248 248 248 248 248 248 
248 248 248 248 248 248 248 248 248 248 248 248 248 248 248 248 248 
248 248 248 248 248 248 248 248 248 248 248 248 248 248 248 248 248 
248 248 248 248 248 248 248 248 248 248 248 248 248 248 248 248 248 
248 248 248 248 248 248 248 248 248 248 248 248 204 159 176 182 182 
182 177 188 185 182 185 182 185 186 248 248 248 248 248 248 248 248 
248 248 248 248 248 248 248 248 248 248 248 248 248 248 248 248 248 
248 248 248 248 248 248 248 248 248 248 248 248 248 248 248 248 248 
248 248 248 248 248 248 248 248 248 248 248 248 248 248 248 248 248 
248 248 248 248 248 248 248 248 248 248 248 248 248 248 248 248 248 
248 248 248 248 248 248 248 248 248 204 171 189 182 182 191 182 185 
185 188 185 188 191 182 185 248 248 248 248 248 248 248 248 248 248 
248 248 248 248 248 248 248 248 248 248 248 248 248 248 248 248 248 
248 248 248 248 248 248 248 248 248 248 248 248 248 248 248 248 248 
248 248 248 248 248 248 248 248 248 248 248 248 248 248 248 248 248 
248 248 248 248 248 248 248 248 248 248 248 248 248 248 248 248 248 
248 248 248 248 248 248 218 171 175 177 182 191 182 185 185 185 185 
185 191 191 185 185 248 248 248 248 248 248 248 248 248 248 248 248 
248 248 248 248 248 248 248 248 248 248 248 248 248 248 248 248 248 
248 248 248 248 248 248 248 248 248 248 248 248 248 248 248 248 248 
248 248 248 248 248 248 248 248 248 248 248 248 248 248 248 248 248 
248 248 248 248 248 248 248 248 248 248 248 248 248 248 248 248 248 
248 248 248 218 171 176 177 182 182 182 185 185 182 185 185 185 191 
189 191 189 248 248 248 248 248 248 248 248 248 248 248 248 248 248 
248 248 248 248 248 248 248 248 248 248 248 248 248 248 248 248 248 
248 248 248 248 248 248 248 248 248 248 248 248 248 248 248 248 248 
248 248 248 248 248 248 248 248 248 248 248 248 248 248 248 248 248 
248 248 248 248 248 248 248 248 248 248 248 248 248 248 248 248 248 
233 171 159 182 182 182 191 185 182 182 185 185 185 191 189 191 189 
189 248 248 248 248 248 248 248 248 248 248 248 248 248 248 248 248 
248 248 248 248 248 248 248 248 248 248 248 248 248 248 248 248 248 
248 248 248 248 248 248 248 248 248 248 248 248 248 248 248 248 248 
248 248 248 248 248 248 248 248 248 248 248 248 248 248 248 248 248 
248 248 248 248 248 248 248 248 248 248 248 248 248 248 233 171 175 
176 182 182 185 182 185 182 185 185 186 191 191 189 189 191 189 248 
248 248 248 248 248 248 248 248 248 248 248 248 248 248 248 248 248 
248 248 248 248 248 248 248 248 248 248 248 248 248 248 248 248 248 
248 248 248 248 248 248 248 248 248 248 248 248 248 248 248 248 248 
248 248 248 248 248 248 248 248 248 248 248 248 248 248 248 248 248 
248 248 248 248 248 248 248 248 248 248 248 238 168 171 176 169 185 
185 185 185 185 182 188 185 191 189 194 189 189 189 189 248 248 248 
248 248 248 248 248 248 248 248 248 248 248 248 248 248 248 248 248 
248 248 248 248 248 248 248 248 248 248 248 248 248 248 248 248 248 
248 248 248 248 248 248 248 248 248 248 248 248 248 248 248 248 248 
248 248 248 248 248 248 248 248 248 248 248 248 248 248 248 248 248 
248 248 248 248 248 248 248 248 238 189 175 171 182 182 185 169 191 
182 191 191 191 189 189 191 189 185 183 189 185 248 248 248 248 248 
248 248 248 248 248 248 248 248 248 248 248 248 248 248 248 248 248 
248 248 248 248 248 248 248 248 248 248 248 248 248 248 248 248 248 
248 248 248 248 248 248 248 248 248 248 248 248 248 248 248 248 248 
248 248 248 248 248 248 248 248 248 248 248 248 248 248 248 248 248 
248 248 248 248 248 237 189 168 171 177 177 177 188 191 182 191 189 
189 193 189 189 189 183 185 189 185 189 248 248 248 248 248 248 248 
248 248 248 248 248 248 248 248 248 248 248 248 248 248 248 248 248 
248 248 248 248 248 248 248 248 248 248 248 248 248 248 248 248 248 
248 248 248 248 248 248 248 248 248 248 248 248 248 248 248 248 248 
248 248 248 248 248 248 248 248 248 248 248 248 248 248 248 248 248 
248 248 248 189 156 177 177 177 206 185 185 182 185 191 194 193 194 
194 189 189 185 189 185 189 191 248 248 248 248 248 248 248 248 248 
248 248 248 248 248 248 248 248 248 248 248 248 248 248 248 248 248 
248 248 248 248 248 248 248 248 248 248 248 248 248 248 248 248 248 
248 248 248 248 248 248 248 248 248 248 248 248 248 248 248 248 248 
248 248 248 248 248 248 248 248 248 248 248 248 248 248 248 248 237 
189 171 176 177 206 169 185 185 188 185 188 191 194 191 193 194 194 
189 189 189 185 189 187 248 248 248 248 248 248 248 248 248 248 248 
248 248 248 248 248 248 248 248 248 248 248 248 248 248 248 248 248 
248 248 248 248 248 248 248 248 248 248 248 248 248 248 248 248 248 
248 248 248 248 248 248 248 248 248 248 248 248 248 248 248 248 248 
248 248 248 248 248 248 248 248 248 248 248 248 248 237 189 159 177 
177 182 188 179 188 188 185 188 185 194 191 193 194 194 194 193 191 
187 187 189 185 248 248 248 248 248 248 248 248 248 248 248 248 248 
248 248 248 248 248 248 248 248 248 248 248 248 248 248 248 248 248 
248 248 248 248 248 248 248 248 248 248 248 248 248 248 248 248 248 
248 248 248 248 248 248 248 248 248 248 248 248 248 248 248 248 248 
248 248 248 248 248 248 248 248 248 248 238 189 159 171 182 182 182 
188 185 185 188 188 191 191 194 194 194 194 194 194 189 183 185 183 
183 187 248 248 248 248 248 248 248 248 248 248 248 248 248 248 248 
248 248 248 248 248 248 248 248 248 248 248 248 248 248 248 248 248 
248 248 248 248 248 248 248 248 248 248 248 248 248 248 248 248 248 
248 248 248 248 248 248 248 248 248 248 248 248 248 248 248 248 248 
248 248 248 248 248 248 248 218 171 159 177 177 185 185 182 191 182 
185 185 191 185 191 193 194 198 194 194 194 189 185 185 183 180 180 
248 248 248 248 248 248 248 248 248 248 248 248 248 248 248 248 248 
248 248 248 248 248 248 248 248 248 248 248 248 248 248 248 248 248 
248 248 248 248 248 248 248 248 248 248 248 248 248 248 248 248 248 
248 248 248 248 248 248 248 248 248 248 248 248 248 248 248 248 248 
248 248 248 248 204 189 171 171 177 182 186 185 185 185 191 185 185 
191 189 191 194 194 194 193 194 194 189 185 189 183 180 178 248 248 
248 248 248 248 248 248 248 248 248 248 248 248 248 248 248 248 248 
248 248 248 248 248 248 248 248 248 248 248 248 248 248 248 248 248 
248 248 248 248 248 248 248 248 248 248 248 248 248 248 248 248 248 
248 248 248 248 248 248 248 248 248 248 248 248 248 248 248 248 248 
248 204 171 171 177 177 185 191 179 185 185 186 186 188 189 189 189 
194 189 194 194 189 194 191 189 183 183 183 178 178 248 248 248 248 
248 248 248 248 248 248 248 248 248 248 248 248 248 248 248 248 248 
248 248 248 248 248 248 248 248 248 248 248 248 248 248 248 248 248 
248 248 248 248 248 248 248 248 248 248 248 248 248 248 248 248 248 
248 248 248 248 248 248 248 248 248 248 248 248 248 248 246 189 171 
189 177 182 182 182 185 186 186 185 182 185 186 191 193 194 189 193 
193 189 193 189 183 183 180 183 180 175 178 248 248 248 248 248 248 
248 248 248 248 248 248 248 248 248 248 248 248 248 248 248 248 248 
248 248 248 248 248 248 248 248 248 248 248 248 248 248 248 248 248 
248 248 248 248 248 248 248 248 248 248 248 248 248 248 248 248 248 
248 248 248 248 248 248 248 248 248 248 248 238 189 168 177 177 177 
182 206 185 186 191 191 185 185 191 189 191 194 193 189 194 189 189 
189 189 189 185 183 185 185 183 185 248 248 248 248 248 248 248 248 
248 248 248 248 248 248 248 248 248 248 248 248 248 248 248 248 248 
248 248 248 248 248 248 248 248 248 248 248 248 248 248 248 248 248 
248 248 248 248 248 248 248 248 248 248 248 248 248 248 248 248 248 
248 248 248 248 248 248 248 248 233 168 171 175 176 179 182 191 186 
189 186 191 189 186 189 189 189 194 193 194 191 193 189 189 189 189 
189 191 183 185 185 189 189 248 248 248 248 248 248 248 248 248 248 
248 248 248 248 248 248 248 248 248 248 248 248 248 248 248 248 248 
248 248 248 248 248 248 248 248 248 248 248 248 248 248 248 248 248 
248 248 248 248 248 248 248 248 248 248 248 248 248 248 248 248 248 
248 248 248 248 248 233 168 159 177 176 182 182 191 185 191 186 191 
189 191 189 191 189 189 193 189 193 189 194 189 189 187 185 191 193 
189 185 189 189 191 248 248 248 248 248 248 248 248 248 248 248 248 
248 248 248 248 248 248 248 248 248 248 248 248 248 248 248 248 248 
248 248 248 248 248 248 248 248 248 248 248 248 248 248 248 248 248 
248 248 248 248 248 248 248 248 248 248 248 248 248 248 248 248 248 
248 248 218 171 171 177 182 183 182 182 185 191 186 189 186 189 189 
189 194 189 193 191 187 193 191 193 189 189 183 189 194 191 189 191 
193 194 189 248 248 248 248 248 248 248 248 248 248 248 248 248 248 
248 248 248 248 248 248 248 248 248 248 248 248 248 248 248 248 248 
248 248 248 248 248 248 248 248 248 248 248 248 248 248 248 248 248 
248 248 248 248 248 248 248 248 248 248 248 248 248 248 248 248 204 
171 189 177 177 206 183 191 185 186 194 186 182 191 187 189 193 194 
194 189 193 187 189 189 189 189 187 189 189 189 193 191 193 197 193 
189 248 248 248 248 248 248 248 248 248 248 248 248 248 248 248 248 
248 248 248 248 248 248 248 248 248 248 248 248 248 248 248 248 248 
248 248 248 248 248 248 248 248 248 248 248 248 248 248 248 248 248 
248 248 248 248 248 248 248 248 248 248 248 248 248 204 171 159 177 
182 182 183 185 191 185 186 191 189 194 194 189 194 189 194 193 194 
189 189 189 194 189 189 183 189 187 189 194 193 194 198 194 189 248 
248 248 248 248 248 248 248 248 248 248 248 248 248 248 248 248 248 
248 248 248 248 248 248 248 248 248 248 248 248 248 248 248 248 248 
248 248 248 248 248 248 248 248 248 248 248 248 248 248 248 248 248 
248 248 248 248 248 248 248 248 248 237 189 171 159 182 182 182 185 
191 191 185 197 194 189 191 193 191 189 191 189 193 193 191 193 189 
193 189 189 189 187 187 189 189 193 194 198 194 194 193 248 248 248 
248 248 248 248 248 248 248 248 248 248 248 248 248 248 248 248 248 
248 248 248 248 248 248 248 248 248 248 248 248 248 248 248 248 248 
248 248 248 248 248 248 248 248 248 248 248 248 248 248 248 248 248 
248 248 248 248 248 248 238 189 168 177 177 182 191 182 182 191 185 
197 193 194 193 191 189 194 191 189 193 193 193 193 194 193 194 194 
194 189 185 187 187 189 193 193 191 193 198 194 248 248 248 248 248 
248 248 248 248 248 248 248 248 248 248 248 248 248 248 248 248 248 
248 248 248 248 248 248 248 248 248 248 248 248 248 248 248 248 248 
248 248 248 248 248 248 248 248 248 248 248 248 248 248 248 248 248 
248 248 248 238 189 171 175 176 182 183 191 191 185 191 194 194 194 
194 189 193 189 191 189 194 191 193 194 194 194 194 198 194 189 189 
187 189 189 194 193 193 187 191 193 194 248 248 248 248 248 248 248 
248 248 248 248 248 248 248 248 248 248 248 248 248 248 248 248 248 
248 248 248 248 248 248 248 248 248 248 248 248 248 248 248 248 248 
248 248 248 248 248 248 248 248 248 248 248 248 248 248 248 248 248 
233 168 171 177 176 182 197 191 191 191 197 194 191 194 194 194 189 
189 189 189 194 191 193 198 198 193 194 194 194 194 191 187 189 189 
191 193 193 194 189 189 193 187 248 248 248 248 248 248 248 248 248 
248 248 248 248 248 248 248 248 248 248 248 248 248 248 248 248 248 
248 248 248 248 248 248 248 248 248 248 248 248 248 248 248 248 248 
248 248 248 248 248 248 248 248 248 248 248 248 248 248 218 171 175 
171 182 188 182 188 191 191 191 193 194 194 193 194 191 193 189 189 
189 189 191 194 199 194 193 198 194 193 194 194 191 189 189 193 194 
189 193 193 189 187 185 248 248 248 248 248 248 248 248 248 248 248 
248 248 248 248 248 248 248 248 248 248 248 248 248 248 248 248 248 
248 248 248 248 248 248 248 248 248 248 248 248 248 248 248 248 248 
248 248 248 248 248 248 248 248 248 248 248 204 189 159 176 182 191 
182 188 197 194 194 193 197 198 194 194 193 189 194 189 189 189 194 
194 194 198 194 193 194 194 194 194 194 194 194 194 194 193 189 193 
189 193 187 187 248 248 248 248 248 248 248 248 248 248 248 248 248 
248 248 248 248 248 248 248 248 248 248 248 248 248 248 248 248 248 
248 248 248 248 248 248 248 248 248 248 248 248 248 248 248 248 248 
248 248 248 248 248 248 248 248 204 171 171 177 183 182 182 191 185 
197 194 194 193 194 194 198 198 194 194 193 194 187 189 191 194 197 
194 193 191 194 194 197 194 193 198 194 198 199 194 193 194 189 187 
187 193 248 248 248 248 248 248 248 248 248 248 248 248 248 248 248 
248 248 248 248 248 248 248 248 248 248 248 248 248 248 248 248 248 
248 248 248 248 248 248 248 248 248 248 248 248 248 248 248 248 248 
248 248 248 248 248 204 171 171 177 175 183 182 191 191 191 194 197 
193 194 194 194 194 198 194 189 191 193 189 189 193 194 193 187 189 
193 194 194 194 194 194 197 198 198 198 194 193 193 193 187 187 187 
248 248 248 248 248 248 248 248 248 248 248 248 248 248 248 248 248 
248 248 248 248 248 248 248 248 248 248 248 248 248 248 248 248 248 
248 248 248 248 248 248 248 248 248 248 248 248 248 248 248 248 248 
248 238 189 171 175 176 182 183 182 185 197 191 197 194 198 194 194 
189 194 194 194 194 193 194 191 189 194 191 193 189 189 189 194 197 
194 198 199 193 198 194 194 197 198 198 198 193 191 193 193 248 248 
248 248 248 248 248 248 248 248 248 248 248 248 248 248 248 248 248 
248 248 248 248 248 248 248 248 248 248 248 248 248 248 248 248 248 
248 248 248 248 248 248 248 248 248 248 248 248 248 248 248 233 189 
168 176 176 177 182 185 191 185 197 193 194 197 194 194 194 194 194 
197 193 194 191 193 189 189 193 189 189 189 193 194 194 193 198 194 
199 198 198 197 193 198 198 203 198 197 193 198 193 248 248 248 248 
248 248 248 248 248 248 248 248 248 248 248 248 248 248 248 248 248 
248 248 248 248 248 248 248 248 248 248 248 248 248 248 248 248 248 
248 248 248 248 248 248 248 248 248 248 248 248 233 189 159 177 177 
182 206 183 191 191 186 191 197 194 194 194 198 197 194 194 194 189 
189 194 194 189 194 197 193 189 189 193 197 194 194 194 199 199 198 
199 197 198 202 199 198 193 197 198 198 194 248 248 248 248 248 248 
248 248 248 248 248 248 248 248 248 248 248 248 248 248 248 248 248 
248 248 248 248 248 248 248 248 248 248 248 248 248 248 248 248 248 
248 248 248 248 248 248 248 248 248 218 189 159 182 189 182 182 183 
186 197 194 191 193 197 193 194 194 194 193 197 193 193 194 194 197 
193 194 189 193 194 189 194 193 198 198 198 193 198 198 198 202 198 
202 199 202 198 198 197 197 198 194 248 248 248 248 248 248 248 248 
248 248 248 248 248 248 248 248 248 248 248 248 248 248 248 248 248 
248 248 248 248 248 248 248 248 248 248 248 248 248 248 248 248 248 
248 248 248 248 248 248 233 171 171 177 182 177 182 182 185 197 194 
198 194 194 194 194 193 191 193 198 193 193 198 194 194 194 193 193 
189 189 193 193 198 193 198 198 198 198 198 199 203 202 202 198 198 
202 199 198 198 193 197 194 248 248 248 248 248 248 248 248 248 248 
248 248 248 248 248 248 248 248 248 248 248 248 248 248 248 248 248 
248 248 248 248 248 248 248 248 248 248 248 248 248 248 248 248 248 
248 248 248 233 189 177 177 182 182 182 206 186 191 194 198 197 194 
194 198 194 189 187 194 198 198 199 199 198 198 194 193 193 193 189 
193 194 198 198 199 198 198 198 199 198 203 203 199 198 198 198 198 
198 198 198 197 193 248 248 248 248 248 248 248 248 248 248 248 248 
248 248 248 248 248 248 248 248 248 248 248 248 248 248 248 248 248 
248 248 248 248 248 248 248 248 248 248 248 248 248 248 248 248 248 
225 168 177 177 177 182 182 191 182 197 194 194 194 199 198 194 194 
194 189 194 194 198 197 198 198 194 198 193 193 191 191 193 189 198 
198 198 203 198 198 198 202 202 198 198 198 197 197 193 198 198 198 
197 193 193 248 248 248 248 248 248 248 248 248 248 248 248 248 248 
248 248 248 248 248 248 248 248 248 248 248 248 248 248 248 248 248 
248 248 248 248 248 248 248 248 248 248 248 248 248 248 218 189 171 
177 182 177 182 182 197 191 197 197 198 199 194 198 194 193 194 194 
194 198 194 193 194 198 197 194 194 189 193 193 187 193 194 198 198 
199 199 202 198 203 203 202 198 198 197 193 197 194 197 198 193 197 
193 248 248 248 248 248 248 248 248 248 248 248 248 248 248 248 248 
248 248 248 248 248 248 248 248 248 248 248 248 248 248 248 248 248 
248 248 248 248 248 248 248 248 248 248 248 225 171 171 177 206 183 
182 197 191 197 199 194 199 199 197 193 198 194 197 193 198 194 194 
194 198 194 194 193 194 193 193 193 193 187 187 193 194 194 198 199 
198 198 199 203 202 197 194 197 193 193 194 198 197 197 193 198 248 
248 248 248 248 248 248 248 248 248 248 248 248 248 248 248 248 248 
248 248 248 248 248 248 248 248 248 248 248 248 248 248 248 248 248 
248 248 248 248 248 248 248 248 218 168 189 177 183 177 182 182 191 
197 198 194 199 199 199 194 193 189 194 198 199 194 194 197 194 198 
194 193 194 198 194 189 193 193 193 191 194 198 194 197 199 198 199 
202 199 198 197 197 193 193 198 193 198 198 198 197 198 248 248 248 
248 248 248 248 248 248 248 248 248 248 248 248 248 248 248 248 248 
248 248 248 248 248 248 248 248 248 248 248 248 248 248 248 248 248 
248 248 248 248 248 233 171 176 177 182 182 182 183 191 194 194 197 
194 199 199 194 194 189 193 193 198 194 194 193 198 194 193 198 194 
193 194 194 193 193 193 197 193 197 194 198 198 202 199 202 204 203 
198 201 197 193 197 193 193 198 198 197 196 193 248 248 248 248 248 
248 248 248 248 248 248 248 248 248 248 248 248 248 248 248 248 248 
248 248 248 248 248 248 248 248 248 248 248 248 248 248 248 248 248 
248 248 233 171 177 177 182 206 183 186 186 185 197 194 194 198 194 
198 194 193 191 193 194 199 194 194 194 198 193 193 193 198 198 193 
193 194 194 194 193 198 198 197 197 198 203 203 198 203 203 198 197 
194 197 198 198 198 198 197 197 197 197 248 248 248 248 248 248 248 
248 248 248 248 248 248 248 248 248 248 248 248 248 248 248 248 248 
248 248 248 248 248 248 248 248 248 248 248 248 248 248 248 248 233 
189 159 189 177 182 186 185 191 186 197 193 197 194 194 194 197 194 
193 193 194 197 194 198 193 194 198 194 197 193 198 193 189 194 194 
199 194 193 193 198 199 198 197 199 202 197 198 203 198 198 197 193 
198 194 198 198 198 198 198 202 248 248 248 248 248 248 248 248 248 
248 248 248 248 248 248 248 248 248 248 248 248 248 248 248 248 248 
248 248 248 248 248 248 248 248 248 248 248 248 248 218 189 159 183 
182 183 191 197 197 194 194 194 194 197 198 194 198 194 194 194 194 
193 193 193 193 194 194 198 198 194 198 198 193 194 193 198 199 198 
193 193 198 198 198 197 203 198 198 202 203 199 198 198 191 191 198 
194 197 194 199 202 202 248 248 248 248 248 248 248 248 248 248 248 
248 248 248 248 248 248 248 248 248 248 248 248 248 248 248 248 248 
248 248 248 248 248 248 248 248 248 248 233 171 176 182 182 191 182 
194 191 194 194 194 197 194 194 198 194 198 198 198 194 198 194 197 
194 194 197 198 198 194 197 198 198 194 193 198 199 203 194 193 197 
198 198 193 198 202 202 202 203 203 199 203 198 197 196 193 198 197 
198 198 203 203 248 248 248 248 248 248 248 248 248 248 248 248 248 
248 248 248 248 248 248 248 248 248 248 248 248 248 248 248 248 248 
248 248 248 248 248 248 248 218 189 171 182 206 182 191 191 191 194 
194 194 194 198 198 194 198 193 193 198 198 199 194 198 193 194 198 
199 199 198 197 198 197 193 198 197 198 198 194 193 193 193 197 197 
198 199 202 202 202 198 198 198 198 199 202 197 197 198 198 197 198 
203 202 248 248 248 248 248 248 248 248 248 248 248 248 248 248 248 
248 248 248 248 248 248 248 248 248 248 248 248 248 248 248 248 248 
248 248 248 248 238 171 171 177 183 182 191 197 194 194 197 194 194 
197 198 198 198 194 197 194 197 199 199 198 194 198 198 194 198 198 
193 194 197 193 198 198 193 194 194 193 198 198 189 193 197 202 199 
199 198 202 198 194 198 198 199 198 198 203 198 194 198 198 203 198 
248 248 248 248 248 248 248 248 248 248 248 248 248 248 248 248 248 
248 248 248 248 248 248 248 248 248 248 248 248 248 248 248 248 248 
248 233 189 189 177 182 183 206 191 197 194 194 198 194 194 194 194 
198 194 198 198 198 198 198 198 194 198 194 194 198 198 198 198 198 
197 198 198 198 198 193 194 197 194 197 193 194 197 198 202 198 198 
199 202 198 199 194 199 198 197 198 198 197 198 194 198 202 248 248 
248 248 248 248 248 248 248 248 248 248 248 248 248 248 248 248 248 
248 248 248 248 248 248 248 248 248 248 248 248 248 248 248 233 189 
171 182 183 206 191 197 194 194 197 194 194 194 194 194 198 194 198 
198 198 199 198 198 193 198 199 194 198 198 198 198 193 198 193 197 
193 194 193 198 198 193 198 189 193 197 198 198 198 198 194 198 199 
198 199 198 198 191 197 198 198 193 193 197 198 198 248 248 248 248 
248 248 248 248 248 248 248 248 248 248 248 248 248 248 248 248 248 
248 248 248 248 248 248 248 248 248 248 248 248 238 168 189 177 177 
206 191 197 198 199 194 193 194 194 193 194 194 194 198 194 194 198 
198 198 194 197 198 198 198 194 198 198 198 198 199 198 198 197 198 
194 194 198 198 193 191 193 198 198 199 199 198 197 198 198 193 198 
198 198 197 193 197 197 198 198 194 198 198 248 248 248 248 248 248 
248 248 248 248 248 248 248 248 248 248 248 248 248 248 248 248 248 
248 248 248 248 248 248 248 248 248 233 189 171 177 206 183 197 191 
198 198 194 194 198 199 194 198 194 198 198 198 193 194 194 193 194 
198 194 194 197 198 198 198 198 198 199 203 198 198 198 198 198 194 
198 198 193 193 198 198 198 198 203 198 197 194 197 193 198 193 198 
197 197 191 194 198 199 198 198 198 248 248 248 248 248 248 248 248 
248 248 248 248 248 248 248 248 248 248 248 248 248 248 248 248 248 
248 248 248 248 248 248 237 189 189 177 182 182 188 191 197 194 199 
198 194 199 198 199 193 198 193 197 194 198 198 193 193 197 198 197 
198 198 198 199 194 198 194 197 203 202 198 198 203 198 198 198 197 
194 193 193 194 193 198 198 202 198 198 197 197 193 199 197 198 197 
197 198 198 202 198 198 198 248 248 248 248 248 248 248 248 248 248 
248 248 248 248 248 248 248 248 248 248 248 248 248 248 248 248 248 
248 248 248 246 189 189 177 182 206 191 199 199 194 199 194 198 199 
199 199 194 193 194 197 198 198 194 198 194 194 194 198 199 198 198 
198 198 198 194 197 194 202 203 199 202 203 199 198 197 197 193 193 
197 193 197 198 202 203 202 198 198 197 198 203 202 198 198 202 198 
198 202 198 198 198 248 248 248 248 248 248 248 248 248 248 248 248 
248 248 248 248 248 248 248 248 248 248 248 248 248 248 248 248 248 
248 204 171 189 182 197 188 194 194 199 199 194 198 194 198 203 198 
198 198 198 193 198 198 198 198 197 198 194 198 199 198 198 198 198 
199 198 193 198 198 203 198 198 199 203 198 197 193 193 193 193 193 
193 193 198 202 199 202 198 198 201 202 198 202 198 198 199 199 199 
198 198 197 248 248 248 248 248 248 248 248 248 248 248 248 248 248 
248 248 248 248 248 248 248 248 248 248 248 248 248 248 248 204 171 
183 182 182 199 198 199 199 198 199 197 194 199 198 198 202 197 193 
198 198 198 193 198 198 198 193 193 198 194 198 198 198 202 203 203 
198 202 198 198 198 193 202 202 198 199 198 193 193 198 193 197 197 
198 202 198 198 202 198 198 197 202 198 198 198 198 198 199 198 198 
198 248 248 248 248 248 248 248 248 248 248 248 248 248 248 248 248 
248 248 248 248 248 248 248 248 248 248 248 248 204 189 171 182 182 
188 191 199 199 198 197 198 197 198 198 198 198 198 198 198 197 197 
194 198 193 194 198 198 198 198 197 198 202 197 202 203 203 203 203 
203 202 197 198 199 202 202 198 193 193 197 193 198 194 198 198 198 
198 198 198 203 198 199 203 198 198 198 198 198 198 198 198 197 248 
248 248 248 248 248 248 248 248 248 248 248 248 248 248 248 248 248 
248 248 248 248 248 248 248 248 248 233 171 176 183 182 191 191 199 
199 198 194 199 194 197 198 193 197 194 199 194 198 197 194 198 194 
194 193 198 198 199 198 197 198 202 198 203 209 209 203 203 202 198 
198 202 202 202 198 197 193 197 198 198 194 198 193 198 198 198 197 
198 198 203 202 203 202 199 198 193 197 198 198 197 198 248 248 248 
248 248 248 248 248 248 248 248 248 248 248 248 248 248 248 248 248 
248 248 248 248 248 248 233 189 171 182 183 206 183 197 204 199 199 
198 199 198 198 198 193 197 198 198 193 198 193 194 194 194 198 198 
198 198 198 198 198 198 202 203 209 209 207 203 206 202 202 198 202 
198 202 202 197 198 202 198 193 198 193 193 193 198 198 198 197 197 
198 202 198 202 202 198 198 193 198 198 198 197 248 248 248 248 248 
248 248 248 248 248 248 248 248 248 248 248 248 248 248 248 248 248 
248 248 248 238 189 171 177 183 206 190 199 199 199 203 198 198 198 
199 198 198 193 198 198 198 198 197 197 193 193 193 197 198 197 197 
198 198 198 203 203 209 204 207 203 206 202 202 203 202 202 202 207 
202 201 198 202 193 193 193 193 193 193 199 198 197 197 197 197 197 
197 197 198 202 198 198 197 197 198 199 248 248 248 248 248 248 248 
248 248 248 248 248 248 248 248 248 248 248 248 248 248 248 248 248 
237 189 171 182 206 186 197 198 199 204 199 199 197 199 199 199 198 
198 198 197 198 199 198 197 193 198 193 194 197 197 197 198 198 198 
202 199 204 203 206 202 202 203 206 203 203 206 202 202 201 197 201 
197 193 191 193 189 191 193 198 198 193 193 193 197 198 201 197 198 
198 202 198 198 198 197 198 203 248 248 248 248 248 248 248 248 248 
248 248 248 248 248 248 248 248 248 248 248 248 248 248 248 204 171 
182 183 197 191 199 204 199 203 198 198 198 197 199 199 198 198 198 
198 198 198 199 197 193 194 194 198 194 197 193 197 198 202 202 203 
203 203 202 207 207 207 203 202 203 202 201 197 202 197 197 197 193 
189 193 189 193 193 193 198 197 193 197 197 198 198 202 198 199 198 
193 198 199 199 198 194 248 248 248 248 248 248 248 248 248 248 248 
248 248 248 248 248 248 248 248 248 248 248 248 204 171 177 182 206 
190 199 198 199 203 198 199 199 198 198 199 203 198 198 197 198 197 
198 198 198 194 197 193 197 198 193 197 199 198 197 202 202 203 207 
203 207 207 207 210 207 202 206 202 197 198 197 194 193 193 193 194 
193 194 193 193 193 197 193 198 201 198 198 198 198 198 194 198 198 
198 199 198 197 